<?xml version="1.0" encoding="utf-8"?>
<!-- Generator: Adobe Illustrator 28.0.0, SVG Export Plug-In . SVG Version: 6.00 Build 0)  -->
<svg version="1.1" xmlns="http://www.w3.org/2000/svg" xmlns:xlink="http://www.w3.org/1999/xlink" x="0px" y="0px"
	 viewBox="0 0 841.89 1190.55" style="enable-background:new 0 0 841.89 1190.55;" xml:space="preserve">
<style type="text/css">
	.st0{fill:none;stroke:#FFFFFF;stroke-width:5;stroke-linecap:round;stroke-linejoin:round;stroke-miterlimit:10;}
	.st1{fill:#1E140D;}
	.st2{fill:#664B35;stroke:#000000;stroke-miterlimit:10;}
	.st3{fill:none;stroke:#000000;stroke-miterlimit:10;}
	.st4{fill:#512222;}
	.st5{fill:#543E26;}
	.st6{fill:#080000;}
	.st7{fill:#FFFFFF;}
	.st8{fill:none;stroke:#000000;stroke-width:0.75;stroke-linecap:round;stroke-linejoin:round;stroke-miterlimit:10;}
	.st9{fill:#FFD6B8;}
	.st10{fill:#4B4A58;stroke:#000000;stroke-miterlimit:10;}
	.st11{display:none;}
</style>
<g id="Fond">
	<ellipse class="st0" cx="420.12" cy="663.24" rx="160.78" ry="44.64"/>
</g>
<g id="Calque_1">
	<path class="st1" d="M259.7,799.05c0,0.01-7.6,22.17-16.97,44.38c-5.23,12.4-4.62,9.68-12.73,28.35
		c-9.55,22.02-12.16,29.97-14.14,36.92c-2.94,10.3-4.84,16.97-4.73,26.01c0.18,14.08,5.12,25.29,8.99,32.18
		c9.72,16.42,12.78,20.05,12.78,20.05c5.56,6.57,11.39,10.44,15.7,13.26c8.36,5.46,20.3,15.31,37.67,22.33
		c21.9,8.85,33.89,6.79,44.24,16.28c1.57,1.44,11,10.38,11,10.38l0,0C341.53,1049.2,313.46,963.41,259.7,799.05z"/>
	<path class="st2" d="M757.23,1190.55c-3.19-3.8-7.99-9.03-14.49-14.46c-6.07-5.08-22.26-17.56-51.71-25.35
		c-22.88-6.05-22.8-1.08-66.02-8.62c-13-2.27-31.11-5.88-40.23-18.82c-3.66-5.2-6.22-11.86-6.22-11.86
		c-3.96-10.32-3.91-19.09-3.93-22.76c-0.06-14.08-1.46-47.63-3.16-93.35l-71.52-12.44c-14.62,15.49-38.85,37.18-73.84,51.38
		c-23.46,9.52-40.84,11.24-49.09,12.94c-45.71,9.41-89.9,75.42-113.91,143.34H757.23z"/>
	<path class="st2" d="M348.42,1190.55c8.59-20.29,17.18-40.58,25.77-60.87c0.21-4.43,0.38-10.67,0.18-18.17
		c-0.25-9.36-0.38-14.04-1.56-19.27c-2.56-11.34-6.3-11.91-7.22-19.73c-1.32-11.25,7.79-20.46,5.31-23.1
		c-1.88-2.01-9.05,2.43-15.05,5.67c-6.74,3.64-30.36,16.41-54.06,16.26c-1.79-0.01-10.63-1.25-28.31-3.73
		c-6.22-0.87-12.29-1.76-20.98-2.73c-7.18-0.8-13.32-1.35-14.67-1.44c-19.72-1.4-49.29,19.81-69.47,44.26
		c-12.71,15.4-19.5,29.41-23.09,36.96c-8.54,17.92-12.87,34.12-15.21,45.9C202.85,1190.55,275.63,1190.55,348.42,1190.55z"/>
	<path class="st3" d="M261.78,807.88c3.72,10.53,3.73,18.35,2.99,23.64c-0.42,3-1.38,7.3,0.66,11.78c1.68,3.69,4.69,5.97,6.98,7.32"
		/>
	<path class="st2" d="M278.24,885.07c-8.74,13.36-9.99,24.44-9.99,30.78c0.01,7.59,2.77,16.61,9.83,33.72
		c4.19,10.15,8.38,20.3,12.57,30.46c5.43,13.16,11,26.54,20.12,37.47c4.49,5.37,8.83,13.26,9.65,20.21
		c0.39,3.32,0.33,6.86,2.05,9.72c3.52,5.86,11.94,5.62,18.71,4.64c5.11-0.74,6.96-0.69,17.58-2.44
		c23.22-3.82,45.28-6.96,67.37-15.94c23.19-9.43,44.81-22.73,63.57-39.31c0,0,5.59-5.64,10.26-11.48
		c34.37-42.91,37.49-234.51-65.95-282.48c-32.04-14.86-65.12-11.69-76.49-10.6c-28.87,2.76-78.85,15.39-84.03,41.3
		c-1.89,9.43,3.71,12.84,2.59,35.5c-0.63,12.86-1.18,21.6-7.03,29.98c-3.56,5.09-6.51,6.38-7.28,11.29
		c-0.17,1.08,0.52,4.19,1.76,10.33c1.38,6.86,1.6,7.28,1.59,9.12c-0.03,3.95-1.08,4.68-0.93,8.97c0.08,2.33,0.18,4.55,1.24,6.99
		c1.78,4.12,5.11,3.92,6.98,7.32c0.93,1.69,1.69,4.48,0.38,9.14"/>
	<path class="st4" d="M305.74,986.07c-2.08-0.35-4.9-1.2-7.37-3.35c-6.21-5.39-7.23-16.35-2.52-21.59c1.06-1.19,2.91-2.63,5.24-3.4
		c3.22-1.07,4.19,0.19,7.89-0.87c2.92-0.83,3.19-1.86,6.29-2.54c2.25-0.49,4.04-0.37,4.97-0.31c6.63,0.44,15.5,4.93,20.34,7.21
		c5.75,2.72,11.71,5,17.8,6.81c4.77,1.42,11.55,5.12,16.45,2.47c-9.43,7.47-14.47,7.77-17.35,6.51c-1.37-0.6-1.57-1.26-4.68-2.87
		c-1.05-0.54-2.56-1.27-9.36-3.78c-2.38-0.88-3.58-1.32-3.76-1.37c-1.07-0.26-6.21-1.41-11.21,0.86c-4.85,2.21-4.09,5.22-8.32,6.47
		c-4.01,1.19-5.53-1.13-8.8,0.32C307.81,978.22,305.98,982.6,305.74,986.07c-0.05,0.71-0.4,5.88,2.91,8.77
		c3.69,3.23,10.4,3.61,20.19-1.25c4.47-2.22,8.85-3.18,13.52-4.72c6.2-2.05,9.75-2.72,12.45-6.05c1.68-2.07,2.37-4.3,2.69-5.82
		c-2.88-2.02-6.59-4.13-11.15-5.69c-6.07-2.08-12.47-4.26-17.85-1.47c-3.28,1.7-3.81,4.09-6.11,5.55c-1.04,0.66-2,0.85-2.21,0.92
		c-4.16,1.3-6.56-0.24-8.8,0.32C309.48,977.11,307.29,979.2,305.74,986.07z"/>
	<path class="st3" d="M295.04,830.06c6.92,7.4,10.7,17.64,10.26,27.77c-0.19,4.49-1.9,11.75-2.23,13.22
		c-1.32,5.88-2.67,9.91-3.59,12.4c-1.28,3.49-2.38,5.78-2.68,6.42c-0.87,1.8-2.19,4.32-4.05,7.19c-1.24,1.91-2.41,3.5-3.38,4.75l0,0
		c-0.99,1.53-3.02,4.95-3.87,8.84c-0.15,0.71-0.42,1.97-0.44,3.66c0,0.39-0.01,2,0.45,4.11c0.47,2.18,1.21,3.77,2,5.43
		c0.74,1.57,1.4,2.67,2.05,3.77c1.62,2.71,2.41,4.11,3.56,5.23c0.99,0.96,1.93,1.59,3.03,2.32c1.55,1.03,2.32,1.54,3.29,1.84
		c0.75,0.23,2.83,0.7,5.83-0.77"/>
	<path class="st5" d="M308.5,932.07L308.5,932.07L308.5,932.07c0.43-1.07,3.12-7.44,8.7-8.78c1.55-0.37,3.05-0.29,5.14-0.17
		c2.56,0.14,4.7,0.61,6.4,1.87c0.6,0.45,1.04,0.91,1.15,1.53c0.19,1.05-0.66,1.99-0.99,2.36c-1.67,1.86-4.97,2.41-9.29,2.76
		C319.61,931.64,315.54,931.97,308.5,932.07z"/>
	<path class="st3" d="M320.99,935.67c6.04-5.06,16.59,0.21,22.52-4.97c0.88-0.76,1.58-1.71,2.18-2.71
		c2.82-4.65,3.55-10.59,1.6-15.66c-1.95-5.07-6.64-9.08-12.01-9.88"/>
	<path class="st5" d="M300.84,931.41c-0.23-0.06-0.67-0.21-2.15-2.15c-1.5-1.97-2.25-2.95-2.55-4.02c-0.13-0.48-0.83-3.01,0.54-5.1
		c0.56-0.86,1.24-1.29,2.42-2c1.69-1.03,3-1.47,4.96-2.15c3.22-1.13,4.84-1.69,6.57-2.41c2.04-0.85,3.82-1.72,4.7-2.15
		c3.91-1.92,4.9-2.73,5.22-2.41c0.65,0.66-2.57,4.91-4.43,7.38c-0.65,0.86-0.35,0.42-3.78,4.75c-1.83,2.31-2.26,2.86-3.14,3.89
		c-2.12,2.46-3.36,3.55-4.12,4.18C303.19,930.78,302.04,931.71,300.84,931.41z"/>
	<path class="st6" d="M413.33,795.9c-6.43-1.75-14.51-3.14-23.8-2.85c-28.45,0.88-48.37,16.83-55.64,23.31
		c-0.05-3.19,0.29-9.99,4.57-16.65c4.24-6.6,10.07-9.55,13.99-11.48c12.68-6.21,27.46-5.92,27.46-5.92l0,0
		c0,0,13.69-0.48,23.89,5.22C406.27,788.92,409.81,791.37,413.33,795.9z"/>
	<path class="st6" d="M265.15,823.38c2.47-1.54,8.41-4.78,16.66-4.91c8.2-0.14,14.21,2.87,16.73,4.31c-1.09-3.8-2.75-5.88-3.86-6.97
		c-2.18-2.16-6.15-4.8-6.15-4.8h0c-3.76-2.51-10.35-3.14-16.36-0.71c-1.95,0.79-3.32,1.34-4.64,2.76
		C264.08,816.79,264.95,822.26,265.15,823.38z"/>
	<path class="st7" d="M294.99,861.54c0.1,1.05-0.26,2.02-1,3.97c-0.26,0.7-1.14,3.03-2.47,4.87c-0.56,0.77-4.57,6.3-9.99,5.44
		c-4.54-0.72-8.22-5.64-8.43-10.8c-0.24-5.92,4.15-10.75,8.71-11.55c3.12-0.55,5.73,0.89,7.56,1.91
		C290.98,856.27,294.68,858.32,294.99,861.54z"/>
	<path class="st6" d="M280.09,852c0.58,0.08,1.83,0.25,2.92,1.16c0.4,0.34,0.68,0.68,0.85,0.94c0.28,0.65,0.63,1.53,0.94,2.6
		c0.09,0.32,0.2,0.77,0.42,1.67c0,0,0.62,2.56,0.61,3.76c0,0.21-0.02,0.43-0.02,0.43c-0.02,0.32-0.05,0.55-0.07,0.67
		c-0.03,0.26-0.05,0.54-0.08,1.1c-0.03,0.57-0.03,0.91-0.05,1.52c-0.03,1.34-0.04,2.02-0.11,2.44c-0.04,0.29-0.14,0.84-0.37,1.52
		c-0.31,0.93-0.68,1.59-0.76,1.73c-0.46,0.8-1.03,1.79-2.24,2.53c-1.21,0.73-2.52,0.83-2.56,0.83c-0.05,0-0.09,0-0.11,0
		c-0.05,0-0.11,0-0.18,0c-1.21-0.01-2.11-0.65-2.78-1.13c-0.88-0.64-1.42-1.32-1.56-1.5c-0.1-0.13-0.14-0.18-0.3-0.4
		c-0.82-1.11-1.27-1.62-1.57-2.02c-0.38-0.51-0.82-1.3-1.06-2.5c-0.07-0.37-0.14-0.81-0.2-1.32c-0.05-0.38-0.11-0.9-0.14-1.55
		c-0.03-0.64,0.01-1.2,0.07-2.29c0.03-0.6,0.07-1.12,0.1-1.53c-0.04-1.05,0.03-1.85,0.1-2.4c0.05-0.38,0.21-1.39,0.21-1.39l0,0
		c0,0,0.21-1.03,0.82-1.9c0.07-0.1,0.21-0.29,0.49-0.66c0.41-0.54,0.68-0.9,0.79-1.03c0.27-0.32,0.9-0.78,2.5-0.87
		C277.36,852.18,278.58,851.8,280.09,852z"/>
	<path class="st7" d="M399.71,838.93c-0.44,1.31-1.14,2.86-2.29,4.4c-1.85,2.48-3.99,3.77-4.71,4.18c0,0,0,0,0,0
		c-0.03,0.03-5.01,4.11-11.11,5.22l0,0c-3.26,0.63-5.79,1.05-7.73,1.29c-2.1,0.4-5.59,0.78-9.61-0.24
		c-4.68-1.18-11.74-4.63-12.33-8.99c-0.74-5.41,7.69-12.53,21.39-16.3l0,0h0c4.4,0,7.54,1.43,9.28,2.1c4.79,1.85,6.68,0.96,9.46,1.6
		c0.82,0.19,1.03,0.37,1.75,0.68c0.13,0.05,0.24,0.1,0.34,0.14c0.33,0.13,0.59,0.22,0.69,0.26c0.03,0.01,0.04,0.01,0.04,0.01
		c1.56,0.52,2.77,1.71,2.77,1.71C399.2,836.5,399.62,838.45,399.71,838.93z"/>
	<path class="st8" d="M397.42,843.34c-1.07,1.14-2.63,2.66-4.71,4.18c-5.51,4.01-10.83,5.22-14.28,5.97
		c-2.75,0.48-7.5,1.14-12.22,0.87c-2.44-0.14-3.78-0.47-4.17-0.57c-2.66-0.68-5.42-2.03-5.47-2.04l0,0
		c-0.92-0.54-2.21-1.46-3.28-2.99c-0.39-0.55-0.68-1.08-0.91-1.56"/>
	<path class="st3" d="M360.95,860.36c13.56,2.31,28.08-1.82,38.38-10.93"/>
	<path class="st3" d="M346.4,827.57c4.3-3.92,11.63-9.48,22.04-12.67c21.86-6.7,40.67,2.16,45.45,4.59"/>
	<path class="st6" d="M365.73,830.12c3.12,0.44,4.76,3.29,5.05,3.79c0.56,0.98,1.26,2.82,1.26,2.82l0,0l0,0c0,0,1.71,3.92,1.56,8.26
		c-0.05,1.48-0.27,2.43-0.54,3.21c-0.58,1.71-1.28,3.74-3.48,4.72c-1.8,0.8-4.52,0.85-4.99,0.86c-0.1,0-0.2,0-0.33,0
		c-2.27-0.01-3.95-0.67-5.19-1.17c-1.64-0.66-2.66-1.36-2.93-1.55c-0.26-0.18-0.81-0.58-1.4-1.15c-1.35-1.3-2-2.56-2.16-2.88
		c-1.08-2.17-1-4.1-0.95-4.98c0.14-2.59,1.2-4.43,1.41-4.78c2.23-3.76,6.92-6.02,6.92-6.02
		C359.96,831.26,363.18,829.76,365.73,830.12z"/>
	<path class="st3" d="M270.76,851.92c0.56-0.72,1.37-1.68,2.42-2.65c0.79-0.73,1.9-1.74,3.48-2.5c1.28-0.61,2.27-0.78,3.31-0.96
		c0.77-0.13,2.18-0.36,3.99-0.14c1.52,0.18,2.59,0.6,4.19,1.22c1.26,0.49,2.27,0.88,3.56,1.71c1.15,0.74,1.96,1.46,2.9,2.29
		c1.15,1.02,2.07,1.96,2.73,2.68"/>
	<path class="st6" d="M295.1,860.65L295.1,860.65l-0.72,3.16c-0.18,0.88-0.23,1.21-0.45,1.75c-0.11,0.28-0.14,0.31-0.44,1.03
		c-0.22,0.54-0.27,0.69-0.46,1.1c-0.15,0.35-0.26,0.59-0.43,0.9c-0.2,0.37-0.38,0.64-0.49,0.8c-0.56,0.84-1.26,1.61-1.56,1.94
		c-0.5,0.39-0.99,0.77-1.49,1.16c-0.67,0.48-1.92,1.3-3.41,1.77c-0.71,0.23-1.46,0.37-1.56,0.39c-0.33,0.06-0.89,0.17-1.62,0.21
		c-0.64,0.04-1.41,0.08-2.36-0.13c-0.5-0.11-0.87-0.18-1.33-0.42c-0.25-0.13-0.6-0.4-1.29-0.92c-0.35-0.27-0.33-0.26-0.83-0.64
		c-0.34-0.26-0.51-0.39-0.88-0.67c-0.27-0.21-0.48-0.37-0.51-0.4c-0.82-0.65-1.71-1.99-1.98-2.4c-1.06-1.61-1.4-2.27-1.44-2.25
		c-0.07,0.04,0.92,2.09,1.81,3.62c0.09,0.16,0.31,0.53,0.62,0.99c0.27,0.4,0.61,0.89,1.14,1.45c0,0,0.31,0.33,0.63,0.62
		c1.06,0.95,2.37,1.47,2.83,1.63c1.71,0.63,3.21,0.63,3.91,0.59c2.25-0.11,3.86-0.97,4.53-1.35c0.9-0.49,1.71-1.11,1.98-1.32
		c0.29-0.22,0.82-0.63,1.41-1.21c0.38-0.37,1.28-1.29,2.16-2.7c1.11-1.79,1.58-3.39,1.74-3.99
		C295.15,863.47,295.17,861.8,295.1,860.65z"/>
	<path class="st6" d="M278.47,875.57c-0.93,0.55-1.33,1.46-1.53,1.91c-0.62,1.4-0.4,2.7-0.19,3.82c0.15,0.8,0.62,3.37,1.53,3.44
		c0.71,0.05,0.94-1.49,2.68-4.2c1.71-2.66,2.76-3.16,2.48-4.01C283.04,875.29,280.24,874.52,278.47,875.57z"/>
	<path class="st6" d="M284.59,875.09c-0.05,0.08-0.29,0.48-0.44,1.06c-0.13,0.55-0.11,0.99-0.08,1.33c0.02,0.27,0.07,0.8,0.29,1.44
		c0.33,0.95,0.82,1.56,1.24,2.07c0.29,0.36,0.76,0.92,1.54,1.47c0.76,0.53,1.43,0.77,1.62,0.83c0.75,0.26,2.17,0.57,2.36,0.2
		c0.19-0.38-1.19-0.88-1.79-2.49c-0.35-0.93-0.32-1.93-0.3-2.56c0.02-0.7,0.12-1.46,0.15-1.66c0.07-0.48,0.12-0.75,0.23-1.46
		c0.19-1.31,0.15-1.46,0.06-1.58c-0.34-0.5-1.24-0.45-1.69-0.42c-0.5,0.03-0.9,0.16-1.14,0.25c-0.2,0.07-0.51,0.18-0.87,0.4
		C285.52,874.11,285,874.44,284.59,875.09z"/>
	<path class="st6" d="M382.59,830.59c1.01,0.18,4.77,1.02,12.29,2.69c2.36,0.53,4.25,0.95,6.94,1.21c3.03,0.3,5.42,0.51,8.28-0.22
		c3.02-0.78,5.06-2.22,6.16-3.01c5.12-3.69,7.29-8.87,8.14-11.37c-3.87,3.65-7.63,5.29-9.9,6.07c-3.85,1.32-7.24,1.46-10.88,1.61
		c-0.96,0.04-3.69,0.13-7.24-0.18c-3.46-0.3-6-0.82-9.58-1.57c-4.4-0.92-4.9-1.24-8.83-1.97c-3.7-0.68-5.59-1.02-7.49-0.85
		c-3.55,0.32-6.12,1.71-7.84,2.66c-0.76,0.42-4.26,2.41-7.58,6.46c-3.68,4.49-5.21,9.14-5.89,12.06c1.6-2.82,5.06-7.93,11.38-11.43
		c3.81-2.1,7.16-2.79,8.17-2.98C373.23,828.93,376.64,829.54,382.59,830.59z"/>
	<path class="st3" d="M274.19,745.43c1.87,9.23,2.08,16.99,1.86,22.54c-0.13,3.42-0.33,7.97-1.68,13.85
		c-1.62,7.05-4.03,12.24-5.32,14.78c-2.4,4.75-5.04,8.51-7.28,11.29"/>
	<path class="st3" d="M274.19,745.43c5.5,4.8,19.73,18.57,20.8,38.69c0.26,4.91-0.56,9.9-0.56,9.9c-0.52,3.53-1.32,6.5-2.06,8.79
		c-1.62,3.66-3.23,7.33-4.85,10.99"/>
	<path class="st1" d="M285.27,845.71c0.95,2.87,18.21-9.24,24.63-20.66c2.11-3.76,3.49-7.52,3.74-8.19
		c2.67-7.34,3.22-13.52,3.47-16.6c1.3-15.79-3.03-32.64-3.77-35.48c-6.28-23.86-14.48-40-14.14-40.21
		c0.45-0.27,14.1,29.27,14.1,29.28c0,0,2.71,6.39,5.01,11.66c2.32,5.32,3.51,8.05,4.9,11c2.45,5.18,4.3,9.09,7.24,13.84
		c2.42,3.93,3.78,6.12,6.19,8.69c2.01,2.13,5.12,5.44,10.09,7.34c6.68,2.55,12.43,0.91,14.54,0.28c3.57-1.07,5.98-2.7,8.5-4.43
		c6.72-4.6,12.23-11.03,11.62-12.14c-0.5-0.9-3.87,1.88-9.71,3.5c-2.52,0.7-5.56,1.58-9.4,1.5c-3.04-0.06-8-0.15-12.67-3.83
		c-3.88-3.06-5.76-7.18-7.4-10.77c-1.38-3.02-2.02-5.38-2.92-8.76c-1.31-4.92-2.37-10.4-3.2-17.45c-0.62-5.27-1.37-11.65-1.07-18.28
		c0.27-5.88,1.59-16.86,8.48-29.8l-1.08,5.14c-0.84,11.73,0.43,21.01,1.58,26.85c0.98,4.98,2.78,14.34,8.16,24.88
		c2.91,5.7,8.83,16.98,20.57,24.77c1.43,0.95,6.72,4.33,14.66,6.47c22.08,5.95,45.31-3.74,45.31-3.74c0,0,0.22-0.03,0.22-0.03
		s-0.22,0.03-0.22,0.03c-9.46,3.9-25.72,3.84-40.48-5.41c-1.7-1.06-10.39-6.67-17.43-18.59c-3.91-6.61-5.97-12.91-7.09-17.32
		c-1.18-4.67-2.83-13.49-1.35-24.38c1.44-10.63,5.17-18.28,7.48-22.3c6.03-11.72,12.05-23.44,18.08-35.15
		c-2.39,5.05-10.25,22.13-12.81,38.48c-0.41,2.6-1,7.17-1.04,13.26c-0.01,2.33,0.08,8.75,2.05,16.42c0.86,3.35,2.26,8.77,5.4,13.8
		c7.73,12.38,21.14,14.54,21.25,14.25c0.08-0.23-8.17-2.1-12.88-10.26c-3.04-5.26-3.66-11.29-3.66-11.29
		c-0.21-1.99-0.18-3.91-0.15-6.12c0.04-2.85,0.07-4.83,0.55-7.37c0.5-2.66,1.27-4.52,1.74-5.69c3.5-8.69,6.18-16.96,6.2-16.96
		c0.01,0-1.17,2.23-2.06,5.45c-0.57,2.07-3.39,13.06,1.57,22.02c2,3.61,4.77,6,5.21,6.38c1.34,1.13,2.44,1.79,3.41,2.36
		c1.76,1.03,4.42,2.57,8.12,3.17c2.99,0.49,5.32,0.16,6.63-0.04c1.83-0.28,3.89-0.58,6.25-1.89c2.82-1.58,4.78-3.84,5.64-5.14
		c3.32-5.01,2.68-14.21-1.82-22.59c1.53,8.5-0.11,15.52-3.39,17.09c-2.21,1.06-5.23-0.33-7.16-1.21c-2.67-1.22-4.51-3.01-5.82-4.28
		c-1.86-1.81-3.06-3.47-3.73-4.41c-2.2-3.09-3.32-4.62-3.74-6.54c0,0-0.39-1.81,1.45-10.27c0,0,1.44-3.5,2.36-6.2
		c1.19-3.5,1.94-5.7,2.06-8.55c0.07-1.66-0.04-4.4-1.26-7.74c-0.47-2.05-0.97-5.26-0.59-9.15c0.26-2.62,0.84-4.78,1.38-6.37
		c1.71,2.17,2.93,4.06,3.57,5.45c2.94,6.35,3.4,9,5.79,13.61c1.22,2.35,2.22,3.97,3.42,5.62c2.74,3.79,5.15,5.57,8.38,10.26
		c11.59,16.85,11.46,38.9,11.38,42.44c-0.45,19.39-8.74,28.54-4.15,37.66c3.87,7.69,13.86,9.32,21.95,9.45
		c-1.39,20.15,3.07,30.27,7.72,35.8c6.11,7.26,14.93,9.45,21.32,22.2c2.52,5.03,1.67,5.72,3.96,9.4
		c6.45,10.36,15.54,8.58,24.52,14.22c16.17,10.16,25.89,40.56,19.3,55.27c-1.76,3.92-5.6,8.79-6.81,17.89
		c-0.66,4.92-0.03,7.48-0.05,10.5c-0.19,21.93-33.53,40.68-47.32,48.43c-4.63,2.6-7.01,3.93-10.36,5.23
		c-14.66,5.71-27.32,3.74-35.45,1.31c10.31,9.18,19.23,15.75,25.89,20.28c11.78,8,16.09,9.32,17.92,9.81
		c7.16,1.93,9.24,0.16,22.34,0.17c14,0.01,12.88,0.77,21.29,1.28c9.91,0.59,17.47-3.94,26.53-8.66
		c16.96-8.84,27.39-21.2,32.66-27.52c8.62-10.34,15.77-18.92,20.36-32.62c9.23-27.49,1.32-55.15-4.5-75.52
		c0,0-3.93-13.77-9.24-25.58c-15.02-33.37-85.72-110.9-188.35-203.73c-3.28-1.06-7.8-2.32-13.24-3.23
		c-61.41-10.33-125.95,42.72-121.95,70.41c1.55,10.71,12.51,11.79,21.14,35.46c3.93,10.77,5.06,19.88,5.45,25.24
		c0.42,5.76,0.98,14.49-1.69,24.59c-1.56,5.88-3.83,11.05-4.7,12.95C286.93,843.14,284.95,844.73,285.27,845.71z"/>
	<path class="st1" d="M282.52,773.96c0.26,0.06-0.72,3.38-0.23,8.26c0.39,3.89,1.51,4.47,2.09,8.33c1.09,7.34,0.06,13.17-0.33,15.11
		c-0.93,4.59-2.38,7.81-2.92,8.94c-1.2,2.53-2.34,4.92-4.37,6.8c-4.48,4.15-10.59,2.39-10.66,3.27c-0.11,1.29,12.67,5.95,19.77,0.46
		c0.38-0.29,1.09-1.05,2.52-2.56c2.91-3.09,5.7-6.05,8-10.2c1.36-2.45,2.05-4.43,2.67-6.18c1.31-3.73,1.18-4.78,2.67-11.28
		c1.06-4.64,1.27-4.69,2.67-10.74c0.93-4.01,1.4-6.06,1.6-8.06c0.38-3.68-0.18-3.2,0-9.4c0.1-3.26,0.32-5.81-0.22-9.61
		c-0.3-2.08-0.46-3.13-0.94-3.51c-3.62-2.85-18.8,10.12-19.07,9.75c-0.11-0.15,2.61-1.67,2.64-3.88c0.01-1.05-0.6-1.41-2.67-4.3
		c-1.06-1.47-1.77-2.59-3.2-4.83c-0.51-0.8-1.95-3.07-2.13-3.49c-3-6.64,72.14-69.75,106.36-47.47c2.79,1.82,4.65,3.74,7.33,6.62
		c2.14,2.29,20,22,19.06,48.23c-0.56,15.63-7.45,23.68-3.23,29.09c4.28,5.49,14.47,1.16,17.09,7.3c0.93,2.18,0,3.56-0.17,7.51
		c-0.43,10.14,4.93,18.26,6.18,20.14c5.84,8.83,11.42,7.19,16.6,17.15c2.05,3.93,1.26,4.36,3.08,7.26
		c5.31,8.47,12.58,5.79,19.09,10.98c8.33,6.64,8.98,21.82,10.29,52.17c0.28,6.49-0.61,12.45-0.61,12.45c0,0,0,0,0,0
		c-0.03,0.28-0.08,0.71-0.15,1.27c-0.55,4.45-1.25,10.18-3.55,16.58c-1.59,4.44-3.39,7.63-4.11,8.87c-2.02,3.45-4.05,6.03-5.44,7.64
		c-1.37,1.59-3.52,4.07-6.93,6.66c-3.27,2.49-6.15,3.9-7.34,4.45c-0.43,0.2-6.34,2.91-11.49,3.32c-11.68,0.93-20.34-9.91-21.38-8.75
		c-0.97,1.09,6.37,11.09,16.18,17.88c2.51,1.74,4.01,2.6,8.01,5.4c6.72,4.7,7.98,6.07,13.22,8.44c3.87,1.75,5.86,2.76,8.55,3.35
		c2.23,0.49,6.49,1.42,9.82-0.01c0.77-0.33,6.24-2.82,6.25-2.82c0.04-0.02,0.06-0.03,0.06-0.03c1.56-0.91,3.72-2.31,6.02-4.33
		c6.11-5.38,7.7-10.31,8.75-9.93c1.76,0.63-1.35,14.9-4.35,24.25c-1.17,3.63-3.39,9.87-3.69,10.7c-1.45,4.07-2.19,6.13-2.73,7.22
		c-3.15,6.37-8.88,10.88-8.88,10.88l0,0c0,0,8.91,6.45,8.91,6.45l0,0c0,0,6.93-3.69,14.26-7.79c5.16-2.89,6.21-3.41,8.23-4.93
		c3.4-2.56,5.87-5.17,7.24-6.63c1.73-1.84,2.8-3.2,4.94-5.9c2.95-3.72,2.87-3.93,6.85-9.15c2.96-3.88,3.44-4.35,4.55-6.2
		c1.88-3.15,2.89-5.86,3.15-6.6c1.95-5.37,1.67-8.56,2.44-8.62c0.87-0.07,1.68,3.98,3.95,11.82c3.22,11.15,4.82,14.1,6.82,14.72
		c0.53,0.17,2.78,1.22,5.71,2.69c0,0,0,0,0,0c1.75,1.15,4.26,3.13,7.76,7.91c3.29,4.49,5.22,8.38,5.93,9.79
		c5.02,9.91,10.86,21.47,20.61,26.5c4.88,2.52,5.29,0.59,11.13,3.56c9.7,4.93,9.01,10.46,15.46,13.4
		c6.85,3.12,16.31-1.83,35.21-11.73c2.32-1.21,4.86-2.61,7.65-5.3c6.2-5.96,8.22-13.06,9.94-17.56c0,0,11.04-28.79,48.19-43.15
		c0.01,0,0.07-0.03,0.14-0.06c3.18-1.26,5.32-3.12,5.95-3.65c3.57-3.03,7.51-4.93,11.16-8.16c6.14-5.43,9.17-12.56,11.48-18.17
		c8.14-19.73,21.59-52.32,11.18-79.16c-6.5-16.76-14.42-10.94-43-41.68c-10.57-11.37-16.28-16.64-21-24
		c-4.05-6.31-9.44-14.72-11.73-26.44c-3.78-19.28,5.15-25.38-0.17-45.08c-2.27-8.4-6.18-15.78-6.69-16.72
		c-3.46-6.45-7.02-10.93-10.34-15.12c-3.7-4.66-6.96-8.35-9.37-10.66c-8.55-8.21-15.15-10.64-25.34-23.24
		c-13.22-16.37-8.45-20.12-20.97-36.85c-4.81-6.43-10.32-11.56-30.79-25.88c-7.54-5.28-11.31-7.92-15.62-10.7
		c0,0-29.26-19.56-44.92-18.75c-2.3,0.12-4.96,0.26-8.04,1.12c-1.68,0.47-2.93,1.01-3.43,1.23c-2.5,1.1-4.15,2.28-4.67,2.64
		c-2.47,1.7-5.48,2.44-11.4,3.85c-10.25,2.44-15.37,3.67-15.57,3.67c-1.77,0.07-3.25-0.08-4.59-0.38
		c-7.48-1.69-12.73-5.14-14.75-6.5c-1.97-1.33-5.73-2.86-9.57-4c-7.01-2.09-12.96-1.47-17.62-0.93
		c-13.28,1.53-24.17,7.04-30.34,10.73c-0.02,0-0.05-0.01-0.07-0.01c0,0,0,0,0,0c0,0,0,0,0,0c-10.68,1.65-17.94,5.12-22.58,7.99
		c-5.75,3.54-6.54,5.55-13.68,9.64c-2.87,1.64-6.22,3.05-7.2,3.49c-1.53,0.69-2.95,1.29-4.23,1.82c-3.25,1.33-5.69,2.21-6.49,2.49
		c-1.06,0.38-3.33,1.23-12.85,5.49c-10.88,4.87-16.31,7.31-22.38,10.5c-5.04,2.65-8.16,4.52-9.23,5.16c0,0-5.61,3.38-10.95,7.21
		c-12.83,9.22-26.92,23.74-26.92,23.74c0,0,14.71-14.24,14.7-14.25c-0.01-0.01-12.01,8.45-21.09,23.49
		c-5.97,9.89-8.74,19.45-9.82,23.65c-1.31,5.1-1.83,9.03-2.26,12.33c-1.43,11.03-1.06,19.59-0.53,30.53
		c0.45,9.39,0.89,10.07,1.25,20.26c0.34,9.65,0.14,14.45,0.04,16.55c-0.32,6.35-0.58,11.46-2.17,17.83
		c-2.23,8.92-3.51,13.17-7.12,16.13c-8.09,6.63-22.44,2.32-28.82-7.11c-5.78-8.54-3.94-19.65-4.7-19.62
		c-0.86,0.04-4.26,14.4,1.78,26.99c4.56,9.5,12.26,13.36,17.5,15.99c4.92,2.47,12.88,6.46,22.58,3.96
		c10.01-2.57,15.78-11.11,21.43-19.33c0.25-0.37,1.51-2.17,3-4.69c4.38-7.4,6.61-13.81,8.8-20.91
		C279.48,785.13,282.04,773.86,282.52,773.96z"/>
	<path class="st6" d="M352.48,835.83c-2.14-0.11-5.79-0.64-9.21-3.08c-5.3-3.79-7.01-10.02-6.53-10.33c0.43-0.27,2.4,4.32,7.66,6.64
		c2.58,1.14,4.93,1.28,5.87,1.33c3.44,0.18,6.15-0.68,7.64-1.28"/>
	<path class="st6" d="M358.29,829.36c-1.32-0.83-2.9-2.06-4.36-3.84c-1.21-1.46-1.9-2.77-2.19-3.34c-0.54-1.08-1.35-2.97-1.69-5.45
		c-0.41-3.03,0-6.06,0.4-6.08c0.3-0.02,0.31,1.65,1.4,4.33c0.5,1.23,1.19,2.87,2.67,4.53c0.28,0.31,1.42,1.57,3.29,2.7
		c0.55,0.33,1.45,0.82,2.63,1.25c1.01,0.36,2.54,0.79,4.47,0.88"/>
	<path class="st6" d="M364.92,824.34c-1.42-1.91-3.22-4.83-4.31-8.71c-1-3.58-1.29-7.6-0.58-7.83c0.53-0.17,1.51,2.49,3.99,6.03
		c1.17,1.67,2.56,3.63,4.6,5.43c1.42,1.26,3.86,3.04,7.6,4.26"/>
	<path class="st6" d="M256.01,844.73c-0.37,0.33-1.66,1.54-1.8,3.41c-0.06,0.75,0.09,1.38,0.18,1.72c0.33,1.15,1,1.85,1.28,2.14
		c0.74,0.76,1.5,1.1,1.9,1.28c1.05,0.46,1.95,0.52,2.5,0.55c1.33,0.08,2.35-0.19,3.12-0.39c0.2-0.05,0.95-0.33,2.44-0.89
		c1.51-0.56,2.01-0.75,2.8-1.03c1.02-0.36,1.53-0.54,2-0.67c0.47-0.13,1.44-0.37,2.71-0.52c0.74-0.08,1.28-0.1,1.85-0.12
		c1.56-0.05,2.75,0.04,3.83,0.12c0.34,0.03,1.48,0.11,2.95,0.31c1.58,0.21,2.41,0.4,2.77,0.48c0.31,0.07,0.68,0.16,1.17,0.31
		c0.44,0.13,1.26,0.41,2.25,0.88c0.13,0.06,1.35,0.65,2.38,1.37c2.75,1.95,4.32,5.56,4.17,5.32c-0.42-0.72-1.7-1.48-2.36-1.96
		c-0.95-0.68-1.97-1.25-3.07-1.64c-2.51-0.89-5.38-1.43-8.01-1.83c-1.59-0.24-2.4-0.29-3.46-0.23c-0.5,0.03-2.53,0.16-5.02,1.12
		c-0.95,0.37-1.64,0.73-2.2,1.03c-2.09,1.11-2.15,1.52-3.77,2.32c-1.72,0.84-3.15,1.1-3.59,1.18c-0.35,0.06-1.45,0.22-2.89,0.14
		c-1.38-0.08-2.39-0.36-3.24-0.6c-1.98-0.55-2.97-0.83-3.69-1.57c-1.14-1.16-1.33-2.71-1.41-3.39c-0.13-1.09,0.03-1.93,0.11-2.35
		C252.53,848.01,255.2,845.47,256.01,844.73z"/>
	<path class="st6" d="M263.32,853.29c-0.86-0.34-3.19-1.4-4.79-3.95c-2.31-3.67-1.48-7.83-1.19-7.86c0.2-0.02,0.15,1.89,1.49,4.5
		c0.59,1.16,1.73,3.31,4.11,4.44c0.55,0.26,0.98,0.38,1.42,0.5c2.22,0.61,4.15,0.47,5.41,0.26"/>
	<path class="st6" d="M268.2,851.48c-0.86-0.34-3.19-1.4-4.79-3.95c-0.5-0.8-1.4-2.16-1.46-4.06c-0.08-2.24,0.99-4.12,1.29-4.06
		c0.31,0.07-0.61,2.33,0.48,4.76c0.54,1.21,1.44,2.13,1.96,2.67c0.81,0.83,1.58,1.37,2.15,1.77c0.6,0.42,1.23,0.86,2.15,1.27
		c0.97,0.43,1.83,0.64,2.44,0.75"/>
	<path class="st3" d="M371.06,697.36"/>
	<path class="st9" d="M377.3,591.65"/>
	<path class="st1" d="M259.39,736.08c0.28,0.04-0.72,2.62-0.11,6.37c0.48,2.99,1.7,3.42,2.38,6.38c1.29,5.64,0.28,10.15-0.11,11.66
		c-0.92,3.56-2.43,6.08-2.99,6.96c-1.25,1.98-2.43,3.85-4.59,5.35c-4.75,3.3-11.35,2.09-11.41,2.77c-0.09,0.99,13.72,4.3,21.27-0.1
		c0.41-0.24,1.16-0.83,2.66-2.03c3.08-2.45,6.03-4.8,8.44-8.05c1.42-1.92,2.13-3.46,2.77-4.82c1.35-2.91,1.19-3.72,2.68-8.76
		c1.07-3.6,1.29-3.64,2.69-8.35c0.93-3.12,1.4-4.71,1.59-6.25c0.35-2.85-0.25-2.46-0.15-7.25c0.05-2.52,0.25-4.49-0.4-7.41
		c-0.35-1.6-0.54-2.4-1.07-2.69c-3.94-2.12-20.05,8.24-20.36,7.96c-0.12-0.11,2.78-1.35,2.77-3.05c0-0.81-0.66-1.08-2.94-3.25
		c-1.16-1.11-1.95-1.96-3.52-3.66c-0.56-0.6-2.14-2.33-2.35-2.64c-3.33-5.05,76.45-55.44,113.62-39.04c3.03,1.34,5.06,2.78,8,4.94
		c2.34,1.72,21.87,16.51,21.29,36.76c-0.35,12.07-7.62,18.44-3,22.51c4.69,4.13,15.58,0.56,18.5,5.24c1.03,1.66,0.06,2.74-0.06,5.79
		c-0.3,7.83,5.61,13.97,6.97,15.4c6.42,6.68,12.4,5.29,18.13,12.85c2.26,2.99,1.43,3.33,3.43,5.53c5.85,6.41,13.62,4.18,20.71,8.04
		c9.07,4.93,10.02,16.62,11.92,40.01c0.41,5-0.46,9.62-0.46,9.62c0,0,0,0,0,0c-0.03,0.22-0.07,0.55-0.14,0.98
		c-0.51,3.45-1.18,7.88-3.55,12.87c-1.64,3.46-3.52,5.96-4.27,6.93c-2.11,2.71-4.26,4.74-5.73,6.02c-1.45,1.26-3.72,3.22-7.35,5.29
		c-3.48,1.99-6.55,3.15-7.82,3.6c-0.46,0.16-6.77,2.39-12.3,2.83c-12.54,0.99-22.04-7.18-23.13-6.26
		c-1.03,0.86,7.03,8.41,17.69,13.42c2.73,1.28,4.36,1.92,8.7,3.98c7.3,3.47,8.68,4.5,14.35,6.21c4.19,1.26,6.34,2,9.25,2.39
		c2.41,0.32,7.01,0.94,10.56-0.23c0.82-0.27,6.66-2.31,6.68-2.32c0.04-0.01,0.06-0.02,0.06-0.02c1.67-0.74,3.96-1.87,6.4-3.48
		c6.49-4.29,8.11-8.13,9.25-7.86c1.9,0.45-1.21,11.53-4.29,18.81c-1.19,2.83-3.48,7.69-3.79,8.34c-1.5,3.17-2.25,4.78-2.82,5.63
		c-3.29,4.98-9.38,8.59-9.38,8.59l0,0c0,0,9.69,4.77,9.69,4.77l0,0c0,0,7.39-3.01,15.21-6.33c5.5-2.34,6.63-2.77,8.77-3.99
		c3.62-2.05,6.23-4.12,7.68-5.28c1.83-1.46,2.96-2.53,5.22-4.66c3.11-2.94,3.03-3.1,7.21-7.21c3.12-3.06,3.63-3.43,4.79-4.89
		c1.97-2.47,3.01-4.58,3.29-5.16c2.01-4.18,1.66-6.64,2.48-6.7c0.94-0.08,1.87,3.04,4.44,9.03c3.65,8.52,5.41,10.76,7.58,11.2
		c0.58,0.12,3.01,0.87,6.19,1.95c0,0,0,0,0,0c1.9,0.85,4.63,2.32,8.48,5.93c3.61,3.39,5.75,6.35,6.54,7.42
		c5.56,7.53,12.03,16.31,22.6,19.97c5.29,1.83,5.7,0.34,12.03,2.49c10.51,3.58,9.86,7.86,16.85,9.98
		c7.42,2.25,17.51-1.78,37.68-9.85c2.47-0.99,5.18-2.13,8.14-4.26c6.57-4.74,8.62-10.26,10.41-13.77c0,0,11.41-22.46,51.12-34.38
		c0.01,0,0.07-0.02,0.15-0.05c3.4-1.04,5.67-2.53,6.34-2.95c3.79-2.42,7.99-3.98,11.87-6.55c6.52-4.32,9.65-9.9,12.05-14.28
		c8.43-15.4,22.36-40.85,10.73-61.32c-7.26-12.78-15.68-8.11-46.93-31.17c-11.55-8.53-17.78-12.46-22.98-18.04
		c-4.46-4.78-10.39-11.14-13.05-20.13c-4.38-14.78,5.12-19.69-0.92-34.76c-2.58-6.43-6.91-12.03-7.46-12.74
		c-3.83-4.89-7.72-8.27-11.36-11.42c-4.05-3.51-7.62-6.28-10.25-8.01c-9.34-6.13-16.47-7.86-27.63-17.35
		c-14.49-12.32-9.42-15.33-23.15-27.95c-5.28-4.85-11.29-8.68-33.54-19.26c-8.2-3.9-12.3-5.85-16.98-7.89
		c0,0-31.79-14.42-48.62-13.44c-2.47,0.14-5.33,0.31-8.63,1.05c-1.8,0.4-3.14,0.84-3.67,1.03c-2.67,0.9-4.43,1.86-4.98,2.14
		c-2.63,1.37-5.86,2.01-12.2,3.23c-10.98,2.12-16.47,3.18-16.68,3.19c-1.9,0.09-3.5,0.01-4.94-0.19
		c-8.07-1.13-13.78-3.68-15.97-4.68c-2.14-0.98-6.21-2.07-10.35-2.87c-7.57-1.45-13.96-0.84-18.97-0.31
		c-14.26,1.48-25.88,5.98-32.46,8.97c-0.02,0-0.05,0-0.07-0.01c0,0,0,0,0,0c0,0,0,0,0,0c-11.46,1.52-19.21,4.36-24.16,6.67
		c-6.13,2.86-6.94,4.43-14.55,7.75c-3.06,1.33-6.64,2.49-7.69,2.86c-1.64,0.57-3.15,1.06-4.52,1.5c-3.47,1.1-6.09,1.83-6.94,2.07
		c-1.13,0.32-3.56,1.02-13.73,4.53c-11.62,4-17.43,6.01-23.9,8.61c-5.37,2.16-8.7,3.67-9.84,4.19c0,0-5.98,2.73-11.66,5.81
		c-13.65,7.4-28.56,18.92-28.56,18.92s15.59-11.32,15.58-11.32c-0.01-0.01-12.78,6.79-22.3,18.6c-6.26,7.77-9.08,15.2-10.17,18.47
		c-1.32,3.97-1.82,7.01-2.23,9.56c-1.36,8.54-0.82,15.13-0.07,23.56c0.64,7.23,1.12,7.75,1.68,15.6c0.52,7.43,0.39,11.14,0.31,12.77
		c-0.24,4.91-0.44,8.86-2.05,13.8c-2.25,6.93-3.56,10.24-7.4,12.6c-8.6,5.3-24.09,2.3-31.11-4.82c-6.36-6.45-4.56-15.07-5.38-15.03
		c-0.93,0.05-4.35,11.2,2.36,20.78c5.05,7.22,13.4,10.03,19.08,11.93c5.33,1.79,13.95,4.69,24.35,2.54
		c10.72-2.21,16.79-8.93,22.73-15.4c0.27-0.29,1.59-1.71,3.15-3.68c4.59-5.81,6.88-10.81,9.12-16.33
		C256.3,744.76,258.88,736.01,259.39,736.08z"/>
	<path class="st1" d="M270.52,725.39c0.23,0.04-0.64,2.16-0.2,5.27c0.35,2.48,1.34,2.85,1.85,5.31c0.97,4.68,0.05,8.4-0.29,9.64
		c-0.82,2.93-2.11,4.98-2.59,5.71c-1.07,1.61-2.07,3.14-3.88,4.34c-3.98,2.65-9.4,1.53-9.46,2.09c-0.1,0.82,11.25,3.79,17.56,0.29
		c0.34-0.19,0.97-0.67,2.23-1.63c2.59-1.97,5.06-3.86,7.1-6.51c1.21-1.57,1.82-2.82,2.37-3.94c1.16-2.38,1.04-3.05,2.37-7.2
		c0.95-2.96,1.12-2.99,2.37-6.85c0.82-2.56,1.24-3.87,1.42-5.14c0.33-2.35-0.16-2.04,0-6c0.08-2.08,0.28-3.71-0.2-6.13
		c-0.26-1.33-0.41-2-0.84-2.24c-3.21-1.82-16.69,6.46-16.93,6.22c-0.1-0.09,2.32-1.07,2.34-2.47c0.01-0.67-0.53-0.9-2.37-2.74
		c-0.94-0.94-1.57-1.65-2.84-3.08c-0.45-0.51-1.73-1.96-1.89-2.23c-2.66-4.23,64.05-44.5,94.43-30.29c2.48,1.16,4.13,2.39,6.51,4.22
		c1.9,1.46,17.76,14.04,16.92,30.77c-0.5,9.97-6.61,15.11-2.87,18.56c3.8,3.5,12.85,0.74,15.17,4.66c0.82,1.39,0,2.27-0.15,4.79
		c-0.39,6.47,4.38,11.65,5.49,12.85c5.18,5.63,10.14,4.59,14.73,10.94c1.82,2.51,1.12,2.78,2.73,4.63c4.71,5.4,11.17,3.7,16.95,7.01
		c7.39,4.24,7.98,13.92,9.14,33.29c0.25,4.14-0.55,7.94-0.55,7.94c0,0,0,0,0,0c-0.03,0.18-0.07,0.45-0.13,0.81
		c-0.48,2.84-1.11,6.5-3.15,10.58c-1.41,2.83-3.01,4.87-3.65,5.66c-1.79,2.2-3.6,3.84-4.83,4.88c-1.22,1.02-3.13,2.59-6.16,4.25
		c-2.91,1.59-5.46,2.49-6.51,2.84c-0.38,0.13-5.63,1.86-10.2,2.12c-10.37,0.6-18.06-6.32-18.98-5.58
		c-0.86,0.7,5.65,7.07,14.36,11.41c2.23,1.11,3.56,1.66,7.11,3.45c5.96,3,7.09,3.87,11.73,5.39c3.43,1.12,5.2,1.76,7.59,2.14
		c1.98,0.31,5.76,0.9,8.72,0c0.69-0.21,5.54-1.8,5.55-1.8c0.03-0.01,0.05-0.02,0.05-0.02c1.39-0.58,3.3-1.47,5.34-2.76
		c5.43-3.43,6.84-6.58,7.77-6.34c1.56,0.4-1.2,9.51-3.86,15.47c-1.03,2.32-3.01,6.3-3.28,6.83c-1.29,2.6-1.94,3.91-2.42,4.61
		c-2.8,4.06-7.89,6.94-7.89,6.94l0,0c0,0,7.91,4.12,7.91,4.12l0,0c0,0,6.15-2.36,12.66-4.97c4.58-1.84,5.52-2.18,7.3-3.14
		c3.02-1.63,5.21-3.3,6.43-4.23c1.53-1.17,2.49-2.04,4.39-3.76c2.62-2.37,2.55-2.51,6.08-5.84c2.62-2.48,3.06-2.77,4.04-3.96
		c1.67-2.01,2.56-3.74,2.8-4.21c1.73-3.42,1.48-5.46,2.17-5.5c0.77-0.05,1.49,2.54,3.5,7.54c2.86,7.11,4.28,9,6.06,9.39
		c0.47,0.11,2.47,0.78,5.07,1.72c0,0,0,0,0,0c1.55,0.73,3.78,2,6.89,5.05c2.92,2.86,4.63,5.35,5.27,6.25
		c4.45,6.33,9.64,13.7,18.3,16.91c4.33,1.61,4.7,0.38,9.88,2.27c8.61,3.14,8,6.67,13.73,8.55c6.08,1.99,14.48-1.17,31.26-7.48
		c2.06-0.77,4.31-1.67,6.79-3.38c5.5-3.8,7.3-8.33,8.83-11.2c0,0,9.81-18.37,42.78-27.53c0.01,0,0.06-0.02,0.13-0.04
		c2.83-0.8,4.72-1.99,5.28-2.33c3.17-1.93,6.67-3.15,9.91-5.21c5.45-3.46,8.14-8.02,10.19-11.6c7.23-12.59,19.17-33.38,9.93-50.51
		c-5.77-10.7-12.8-6.98-38.18-26.6c-9.38-7.25-14.45-10.61-18.65-15.32c-3.59-4.03-8.38-9.39-10.42-16.87
		c-3.35-12.3,4.57-16.19-0.15-28.76c-2.01-5.36-5.49-10.07-5.94-10.67c-3.07-4.11-6.23-6.97-9.18-9.64
		c-3.28-2.97-6.18-5.33-8.32-6.8c-7.6-5.24-13.45-6.79-22.5-14.83c-11.74-10.44-7.5-12.84-18.61-23.51
		c-4.27-4.1-9.16-7.38-27.34-16.52c-6.7-3.37-10.04-5.05-13.87-6.82c0,0-25.98-12.48-39.88-11.96c-2.04,0.08-4.41,0.16-7.14,0.72
		c-1.49,0.3-2.6,0.64-3.05,0.78c-2.22,0.7-3.69,1.46-4.15,1.68c-2.2,1.08-4.87,1.56-10.12,2.46c-9.1,1.56-13.65,2.34-13.82,2.34
		c-1.57,0.04-2.89-0.05-4.07-0.25c-6.64-1.08-11.3-3.28-13.1-4.15c-1.75-0.85-5.08-1.82-8.49-2.55c-6.22-1.34-11.5-0.94-15.65-0.59
		c-11.79,0.98-21.46,4.49-26.94,6.84c-0.02,0-0.04,0-0.06-0.01c0,0,0,0,0,0c0,0,0,0,0,0c-9.48,1.05-15.92,3.27-20.05,5.09
		c-5.11,2.26-5.81,3.54-12.14,6.15c-2.55,1.05-5.52,1.95-6.4,2.23c-1.36,0.44-2.62,0.83-3.76,1.16c-2.88,0.85-5.06,1.41-5.76,1.59
		c-0.94,0.24-2.95,0.78-11.4,3.5c-9.66,3.11-14.48,4.66-19.87,6.7c-4.47,1.69-7.25,2.88-8.19,3.29c0,0-4.98,2.16-9.72,4.6
		c-11.39,5.88-23.9,15.15-23.9,15.14c0,0,13.06-9.08,13.05-9.09c-0.01,0-10.67,5.39-18.72,14.99c-5.3,6.31-7.76,12.41-8.72,15.09
		c-1.16,3.26-1.62,5.76-2,7.87c-1.27,7.04-0.94,12.5-0.47,19.48c0.4,5.99,0.79,6.43,1.11,12.93c0.3,6.15,0.13,9.22,0.03,10.56
		c-0.29,4.05-0.52,7.31-1.93,11.38c-1.98,5.69-3.11,8.4-6.32,10.29c-7.19,4.23-19.92,1.48-25.59-4.53
		c-5.13-5.45-3.5-12.54-4.17-12.52c-0.76,0.02-3.78,9.19,1.58,17.22c4.04,6.06,10.88,8.53,15.54,10.2
		c4.37,1.57,11.43,4.12,20.05,2.53c8.88-1.64,14.01-7.09,19.03-12.33c0.23-0.24,1.34-1.38,2.66-2.99c3.89-4.72,5.87-8.81,7.81-13.34
		C267.82,732.52,270.09,725.33,270.52,725.39z"/>
	<path class="st7" d="M522.25,1254.21"/>
	<path class="st7" d="M201.16,174.75"/>
</g>
<g id="Calque_5">
	<path class="st4" d="M760.96,1190.39c-9.75-10.36-18.96-17.32-25.59-21.76c-14.49-9.7-28.18-15.12-41.08-20.12
		c-6.73-2.61-12.63-4.71-17.9-6.49c-7.21-2.42-10.36-3.29-30.72-9.44c-13.59-4.11-16.56-5.05-19.83-6.12
		c-12.66-4.16-17.92-6.26-20.19-7.21c-11.17-4.65-15.54-7.67-17.99-9.54c-3.69-2.81-6.41-5.56-8.18-7.53
		c-2.36-4.25-5.05-10.45-5.8-18.25c-0.25-2.64-0.22-4.34-0.16-9.28c0.06-4.68,0.03-11.36-0.34-19.71
		c-15.31,16.4-31.88,32.95-49.81,49.43c-4.54,4.18-9.08,8.27-13.61,12.26c-17.84,4.67-34.98-6.14-65.94-25.27
		c-45.94-28.38-56.43-46.84-75.49-42.4c-10.82,2.52-13.24,9.82-32.06,15.51c-13.18,3.99-24.75,4.27-32.09,3.96
		c-14.43-0.86-36.16-1.74-62.28-7c-7.5-1.51-15.01-3.27-22.65-3.59c-8.52-0.36-32.64,1.33-76.76,47.87
		c-17.24,18.19-40.14,45.99-60.79,84.93c10.48,0.01,23.94,0.01,39.6,0c35.88-0.02,60.7-0.08,75.92-0.09c2.75,0,16.27,0,40.14,0
		c61.42,0,64.68-0.03,84.5,0c39.75,0.07,33.8,0.2,62.92,0.21c32.1,0.01,35.56-0.15,78.72-0.21c13.1-0.02,11.2,0,58.74,0
		c36.8,0,55.2,0,59.72,0c100.07-0.19,100.13-0.59,116.5,0c5.07,0.18,20.32,0.79,40.86,0.47
		C748.56,1190.89,756.12,1190.61,760.96,1190.39z"/>
	<path class="st10" d="M701.65,1229.37"/>
</g>
<g id="Calque_6">
	<path class="st3" d="M215.49,1090.26c7.92,3.81,13.71,11.15,17.27,19.18s5.1,16.79,6.39,25.48c2.56,17.33,4.22,34.8,4.97,52.31"/>
	<path class="st3" d="M219.16,1115.61c6.72,14.49,10.54,30.32,11.17,46.28"/>
	<path class="st3" d="M576.71,1100.6c-2.04,7.02-6.52,26.04,1.32,48.33c7.54,21.45,22.2,33.73,28.21,38.26"/>
</g>
<g id="Calque_3" class="st11">
</g>
<g id="Calque_4">
</g>
<g id="Calque_7">
</g>
</svg>
